<mxfile host="app.diagrams.net" agent="Mozilla/5.0 (X11; Linux x86_64) AppleWebKit/537.36 (KHTML, like Gecko) Chrome/135.0.0.0 Safari/537.36 Edg/135.0.0.0" version="26.2.13">
  <diagram name="Página-1" id="d0zZT37VZYB-sFjeeZLX">
    <mxGraphModel dx="1457" dy="1973" grid="1" gridSize="10" guides="1" tooltips="1" connect="1" arrows="1" fold="1" page="1" pageScale="1" pageWidth="850" pageHeight="1100" math="0" shadow="0">
      <root>
        <mxCell id="0" />
        <mxCell id="1" parent="0" />
        <mxCell id="t-FGzTtGXcZ6JQJM-kCl-2" value="Registrar servicio&lt;div&gt;3.3&lt;/div&gt;" style="ellipse;whiteSpace=wrap;html=1;aspect=fixed;fillColor=#e3c800;fontColor=#000000;strokeColor=#B09500;" parent="1" vertex="1">
          <mxGeometry x="460" y="120" width="120" height="120" as="geometry" />
        </mxCell>
        <mxCell id="t-FGzTtGXcZ6JQJM-kCl-3" value="&lt;div&gt;Anónimo&lt;/div&gt;&lt;div&gt;2.0&lt;/div&gt;" style="rounded=0;whiteSpace=wrap;html=1;" parent="1" vertex="1">
          <mxGeometry x="170" y="-275" width="140" height="70" as="geometry" />
        </mxCell>
        <mxCell id="t-FGzTtGXcZ6JQJM-kCl-4" value="Iniciar servicio&lt;br&gt;&lt;div&gt;3.4&lt;/div&gt;" style="ellipse;whiteSpace=wrap;html=1;aspect=fixed;fillColor=#6d8764;fontColor=#ffffff;strokeColor=#3A5431;" parent="1" vertex="1">
          <mxGeometry x="460" y="260" width="120" height="120" as="geometry" />
        </mxCell>
        <mxCell id="t-FGzTtGXcZ6JQJM-kCl-5" value="Reiniciar servicio&lt;br&gt;&lt;div&gt;3.5&lt;/div&gt;" style="ellipse;whiteSpace=wrap;html=1;aspect=fixed;fillColor=#1ba1e2;strokeColor=#006EAF;fontColor=#ffffff;" parent="1" vertex="1">
          <mxGeometry x="460" y="400" width="120" height="120" as="geometry" />
        </mxCell>
        <mxCell id="t-FGzTtGXcZ6JQJM-kCl-6" value="Detener servicio&lt;br&gt;&lt;div&gt;3.6&lt;/div&gt;" style="ellipse;whiteSpace=wrap;html=1;aspect=fixed;fillColor=#fa6800;fontColor=#000000;strokeColor=#C73500;" parent="1" vertex="1">
          <mxGeometry x="460" y="540" width="120" height="120" as="geometry" />
        </mxCell>
        <mxCell id="t-FGzTtGXcZ6JQJM-kCl-7" value="Dashboard/panel&amp;nbsp;&lt;div&gt;3.1&lt;/div&gt;" style="ellipse;whiteSpace=wrap;html=1;aspect=fixed;fillColor=#0050ef;strokeColor=#001DBC;fontColor=#ffffff;" parent="1" vertex="1">
          <mxGeometry x="460" y="-160" width="120" height="120" as="geometry" />
        </mxCell>
        <mxCell id="t-FGzTtGXcZ6JQJM-kCl-10" value="&lt;div&gt;Login&lt;/div&gt;&lt;div&gt;3.7&lt;/div&gt;" style="ellipse;whiteSpace=wrap;html=1;aspect=fixed;" parent="1" vertex="1">
          <mxGeometry x="460" y="-300" width="120" height="120" as="geometry" />
        </mxCell>
        <mxCell id="t-FGzTtGXcZ6JQJM-kCl-11" value="&lt;div&gt;Administrador&lt;/div&gt;&lt;div&gt;1.0&lt;/div&gt;" style="rounded=0;whiteSpace=wrap;html=1;" parent="1" vertex="1">
          <mxGeometry x="170" y="220" width="140" height="70" as="geometry" />
        </mxCell>
        <mxCell id="t-FGzTtGXcZ6JQJM-kCl-12" value="" style="curved=1;endArrow=classic;html=1;rounded=0;exitX=1;exitY=0.5;exitDx=0;exitDy=0;entryX=0;entryY=0.5;entryDx=0;entryDy=0;" parent="1" source="t-FGzTtGXcZ6JQJM-kCl-3" target="t-FGzTtGXcZ6JQJM-kCl-10" edge="1">
          <mxGeometry width="50" height="50" relative="1" as="geometry">
            <mxPoint x="370" y="-300" as="sourcePoint" />
            <mxPoint x="420" y="-350" as="targetPoint" />
            <Array as="points">
              <mxPoint x="380" y="-280" />
            </Array>
          </mxGeometry>
        </mxCell>
        <mxCell id="t-FGzTtGXcZ6JQJM-kCl-13" value="" style="curved=1;endArrow=classic;html=1;rounded=0;exitX=0;exitY=0.5;exitDx=0;exitDy=0;" parent="1" source="t-FGzTtGXcZ6JQJM-kCl-10" edge="1">
          <mxGeometry width="50" height="50" relative="1" as="geometry">
            <mxPoint x="310" y="-230" as="sourcePoint" />
            <mxPoint x="310" y="-240" as="targetPoint" />
            <Array as="points">
              <mxPoint x="380" y="-200" />
            </Array>
          </mxGeometry>
        </mxCell>
        <mxCell id="t-FGzTtGXcZ6JQJM-kCl-14" value="Status" style="text;html=1;align=center;verticalAlign=middle;whiteSpace=wrap;rounded=0;" parent="1" vertex="1">
          <mxGeometry x="350" y="-220" width="60" height="30" as="geometry" />
        </mxCell>
        <mxCell id="t-FGzTtGXcZ6JQJM-kCl-15" value="" style="endArrow=none;dashed=1;html=1;dashPattern=1 3;strokeWidth=2;rounded=0;" parent="1" edge="1">
          <mxGeometry width="50" height="50" relative="1" as="geometry">
            <mxPoint x="423" y="-210" as="sourcePoint" />
            <mxPoint x="423" y="-270" as="targetPoint" />
          </mxGeometry>
        </mxCell>
        <mxCell id="t-FGzTtGXcZ6JQJM-kCl-16" value="Credenciales" style="text;html=1;align=center;verticalAlign=middle;whiteSpace=wrap;rounded=0;" parent="1" vertex="1">
          <mxGeometry x="350" y="-290" width="60" height="30" as="geometry" />
        </mxCell>
        <mxCell id="t-FGzTtGXcZ6JQJM-kCl-18" value="Usuario&lt;div&gt;3.8&lt;/div&gt;" style="html=1;dashed=0;whiteSpace=wrap;shape=partialRectangle;right=0;" parent="1" vertex="1">
          <mxGeometry x="730" y="-255" width="100" height="30" as="geometry" />
        </mxCell>
        <mxCell id="t-FGzTtGXcZ6JQJM-kCl-19" value="" style="curved=1;endArrow=classic;html=1;rounded=0;entryX=0;entryY=0.5;entryDx=0;entryDy=0;exitX=1;exitY=0.5;exitDx=0;exitDy=0;" parent="1" source="t-FGzTtGXcZ6JQJM-kCl-10" target="t-FGzTtGXcZ6JQJM-kCl-18" edge="1">
          <mxGeometry width="50" height="50" relative="1" as="geometry">
            <mxPoint x="600" y="-150" as="sourcePoint" />
            <mxPoint x="730" y="-100" as="targetPoint" />
            <Array as="points">
              <mxPoint x="650" y="-210" />
            </Array>
          </mxGeometry>
        </mxCell>
        <mxCell id="t-FGzTtGXcZ6JQJM-kCl-20" value="" style="curved=1;endArrow=classic;html=1;rounded=0;exitX=0;exitY=0.5;exitDx=0;exitDy=0;entryX=1;entryY=0.5;entryDx=0;entryDy=0;" parent="1" source="t-FGzTtGXcZ6JQJM-kCl-18" target="t-FGzTtGXcZ6JQJM-kCl-10" edge="1">
          <mxGeometry width="50" height="50" relative="1" as="geometry">
            <mxPoint x="780" y="-210" as="sourcePoint" />
            <mxPoint x="630" y="-210" as="targetPoint" />
            <Array as="points">
              <mxPoint x="660" y="-270" />
            </Array>
          </mxGeometry>
        </mxCell>
        <mxCell id="t-FGzTtGXcZ6JQJM-kCl-21" value="" style="endArrow=none;dashed=1;html=1;dashPattern=1 3;strokeWidth=2;rounded=0;" parent="1" edge="1">
          <mxGeometry width="50" height="50" relative="1" as="geometry">
            <mxPoint x="700" y="-210" as="sourcePoint" />
            <mxPoint x="700" y="-270" as="targetPoint" />
          </mxGeometry>
        </mxCell>
        <mxCell id="t-FGzTtGXcZ6JQJM-kCl-25" value="R" style="text;html=1;align=center;verticalAlign=middle;whiteSpace=wrap;rounded=0;" parent="1" vertex="1">
          <mxGeometry x="600" y="-290" width="60" height="30" as="geometry" />
        </mxCell>
        <mxCell id="t-FGzTtGXcZ6JQJM-kCl-26" value="Status" style="text;html=1;align=center;verticalAlign=middle;whiteSpace=wrap;rounded=0;" parent="1" vertex="1">
          <mxGeometry x="610" y="-220" width="60" height="30" as="geometry" />
        </mxCell>
        <mxCell id="uw__DwkTyNiJti9hj64N-1" value="" style="curved=1;endArrow=classic;html=1;rounded=0;exitX=1;exitY=0.75;exitDx=0;exitDy=0;entryX=0;entryY=0.5;entryDx=0;entryDy=0;fillColor=#6d8764;strokeColor=#3A5431;" parent="1" source="t-FGzTtGXcZ6JQJM-kCl-11" target="t-FGzTtGXcZ6JQJM-kCl-4" edge="1">
          <mxGeometry width="50" height="50" relative="1" as="geometry">
            <mxPoint x="310" y="320" as="sourcePoint" />
            <mxPoint x="460" y="320" as="targetPoint" />
            <Array as="points">
              <mxPoint x="380" y="280" />
            </Array>
          </mxGeometry>
        </mxCell>
        <mxCell id="uw__DwkTyNiJti9hj64N-2" value="" style="curved=1;endArrow=classic;html=1;rounded=0;exitX=0;exitY=0.5;exitDx=0;exitDy=0;entryX=1;entryY=0.75;entryDx=0;entryDy=0;fillColor=#6d8764;strokeColor=#3A5431;" parent="1" source="t-FGzTtGXcZ6JQJM-kCl-4" target="t-FGzTtGXcZ6JQJM-kCl-11" edge="1">
          <mxGeometry width="50" height="50" relative="1" as="geometry">
            <mxPoint x="460" y="320" as="sourcePoint" />
            <mxPoint x="310" y="320" as="targetPoint" />
            <Array as="points">
              <mxPoint x="370" y="320" />
            </Array>
          </mxGeometry>
        </mxCell>
        <mxCell id="uw__DwkTyNiJti9hj64N-4" value="" style="curved=1;endArrow=classic;html=1;rounded=0;exitX=0.25;exitY=0;exitDx=0;exitDy=0;entryX=0;entryY=0.5;entryDx=0;entryDy=0;fillColor=#0050ef;strokeColor=#001DBC;" parent="1" source="t-FGzTtGXcZ6JQJM-kCl-11" target="t-FGzTtGXcZ6JQJM-kCl-7" edge="1">
          <mxGeometry width="50" height="50" relative="1" as="geometry">
            <mxPoint x="205" y="145" as="sourcePoint" />
            <mxPoint x="390" y="130" as="targetPoint" />
            <Array as="points">
              <mxPoint x="300" y="-30" />
            </Array>
          </mxGeometry>
        </mxCell>
        <mxCell id="uw__DwkTyNiJti9hj64N-5" value="" style="curved=1;endArrow=classic;html=1;rounded=0;exitX=0;exitY=0.5;exitDx=0;exitDy=0;entryX=0.25;entryY=0;entryDx=0;entryDy=0;fillColor=#0050ef;strokeColor=#001DBC;" parent="1" source="t-FGzTtGXcZ6JQJM-kCl-7" target="t-FGzTtGXcZ6JQJM-kCl-11" edge="1">
          <mxGeometry width="50" height="50" relative="1" as="geometry">
            <mxPoint x="330" y="115" as="sourcePoint" />
            <mxPoint x="205" y="145" as="targetPoint" />
            <Array as="points">
              <mxPoint x="370" y="50" />
            </Array>
          </mxGeometry>
        </mxCell>
        <mxCell id="uw__DwkTyNiJti9hj64N-6" value="" style="curved=1;endArrow=classic;html=1;rounded=0;exitX=0.5;exitY=0;exitDx=0;exitDy=0;entryX=0;entryY=0.5;entryDx=0;entryDy=0;strokeColor=#B20000;fillColor=#e51400;" parent="1" source="t-FGzTtGXcZ6JQJM-kCl-11" target="fl9XX-GpoOIAZKLbjIUZ-5" edge="1">
          <mxGeometry width="50" height="50" relative="1" as="geometry">
            <mxPoint x="215" y="295" as="sourcePoint" />
            <mxPoint x="470" y="50" as="targetPoint" />
            <Array as="points">
              <mxPoint x="340" y="110" />
            </Array>
          </mxGeometry>
        </mxCell>
        <mxCell id="uw__DwkTyNiJti9hj64N-7" value="" style="curved=1;endArrow=classic;html=1;rounded=0;exitX=0;exitY=0.5;exitDx=0;exitDy=0;entryX=0.5;entryY=0;entryDx=0;entryDy=0;strokeColor=#B20000;fillColor=#e51400;" parent="1" source="fl9XX-GpoOIAZKLbjIUZ-5" target="t-FGzTtGXcZ6JQJM-kCl-11" edge="1">
          <mxGeometry width="50" height="50" relative="1" as="geometry">
            <mxPoint x="470" y="330" as="sourcePoint" />
            <mxPoint x="320" y="330" as="targetPoint" />
            <Array as="points">
              <mxPoint x="400" y="150" />
            </Array>
          </mxGeometry>
        </mxCell>
        <mxCell id="uw__DwkTyNiJti9hj64N-8" value="" style="curved=1;endArrow=classic;html=1;rounded=0;exitX=0.5;exitY=1;exitDx=0;exitDy=0;entryX=0;entryY=0.5;entryDx=0;entryDy=0;fillColor=#1ba1e2;strokeColor=#006EAF;" parent="1" source="t-FGzTtGXcZ6JQJM-kCl-11" target="t-FGzTtGXcZ6JQJM-kCl-5" edge="1">
          <mxGeometry width="50" height="50" relative="1" as="geometry">
            <mxPoint x="275" y="475" as="sourcePoint" />
            <mxPoint x="460" y="370" as="targetPoint" />
            <Array as="points">
              <mxPoint x="390" y="370" />
            </Array>
          </mxGeometry>
        </mxCell>
        <mxCell id="uw__DwkTyNiJti9hj64N-9" value="" style="curved=1;endArrow=classic;html=1;rounded=0;exitX=0;exitY=0.5;exitDx=0;exitDy=0;entryX=0.5;entryY=1;entryDx=0;entryDy=0;fillColor=#1ba1e2;strokeColor=#006EAF;" parent="1" source="t-FGzTtGXcZ6JQJM-kCl-5" target="t-FGzTtGXcZ6JQJM-kCl-11" edge="1">
          <mxGeometry width="50" height="50" relative="1" as="geometry">
            <mxPoint x="285" y="365" as="sourcePoint" />
            <mxPoint x="470" y="470" as="targetPoint" />
            <Array as="points">
              <mxPoint x="370" y="430" />
            </Array>
          </mxGeometry>
        </mxCell>
        <mxCell id="uw__DwkTyNiJti9hj64N-10" value="" style="curved=1;endArrow=classic;html=1;rounded=0;exitX=0.25;exitY=1;exitDx=0;exitDy=0;entryX=0;entryY=0.5;entryDx=0;entryDy=0;fillColor=#fa6800;strokeColor=#C73500;" parent="1" source="t-FGzTtGXcZ6JQJM-kCl-11" target="t-FGzTtGXcZ6JQJM-kCl-6" edge="1">
          <mxGeometry width="50" height="50" relative="1" as="geometry">
            <mxPoint x="225" y="435" as="sourcePoint" />
            <mxPoint x="410" y="540" as="targetPoint" />
            <Array as="points">
              <mxPoint x="370" y="440" />
            </Array>
          </mxGeometry>
        </mxCell>
        <mxCell id="uw__DwkTyNiJti9hj64N-11" value="" style="curved=1;endArrow=classic;html=1;rounded=0;exitX=0;exitY=0.5;exitDx=0;exitDy=0;entryX=0.25;entryY=1;entryDx=0;entryDy=0;fillColor=#fa6800;strokeColor=#C73500;" parent="1" source="t-FGzTtGXcZ6JQJM-kCl-6" target="t-FGzTtGXcZ6JQJM-kCl-11" edge="1">
          <mxGeometry width="50" height="50" relative="1" as="geometry">
            <mxPoint x="355" y="585" as="sourcePoint" />
            <mxPoint x="170" y="480" as="targetPoint" />
            <Array as="points">
              <mxPoint x="290" y="510" />
            </Array>
          </mxGeometry>
        </mxCell>
        <mxCell id="uw__DwkTyNiJti9hj64N-15" value="Servidores&lt;br&gt;&lt;div&gt;3.9&lt;/div&gt;" style="html=1;dashed=0;whiteSpace=wrap;shape=partialRectangle;right=0;" parent="1" vertex="1">
          <mxGeometry x="700" y="152.5" width="140" height="55" as="geometry" />
        </mxCell>
        <mxCell id="fl9XX-GpoOIAZKLbjIUZ-5" value="Registrar servidor&lt;div&gt;3.2&lt;/div&gt;" style="ellipse;whiteSpace=wrap;html=1;aspect=fixed;fillColor=#e51400;strokeColor=#B20000;fontColor=#ffffff;" parent="1" vertex="1">
          <mxGeometry x="460" y="-20" width="120" height="120" as="geometry" />
        </mxCell>
        <mxCell id="fl9XX-GpoOIAZKLbjIUZ-12" value="" style="curved=1;endArrow=classic;html=1;rounded=0;exitX=1;exitY=0.25;exitDx=0;exitDy=0;entryX=0;entryY=0.5;entryDx=0;entryDy=0;fillColor=#e3c800;strokeColor=#B09500;" parent="1" source="t-FGzTtGXcZ6JQJM-kCl-11" target="t-FGzTtGXcZ6JQJM-kCl-2" edge="1">
          <mxGeometry width="50" height="50" relative="1" as="geometry">
            <mxPoint x="300" y="193" as="sourcePoint" />
            <mxPoint x="450" y="240" as="targetPoint" />
            <Array as="points">
              <mxPoint x="370" y="200" />
            </Array>
          </mxGeometry>
        </mxCell>
        <mxCell id="fl9XX-GpoOIAZKLbjIUZ-13" value="" style="curved=1;endArrow=classic;html=1;rounded=0;exitX=0;exitY=0.5;exitDx=0;exitDy=0;entryX=1;entryY=0.25;entryDx=0;entryDy=0;fillColor=#e3c800;strokeColor=#B09500;" parent="1" source="t-FGzTtGXcZ6JQJM-kCl-2" target="t-FGzTtGXcZ6JQJM-kCl-11" edge="1">
          <mxGeometry width="50" height="50" relative="1" as="geometry">
            <mxPoint x="470" y="330" as="sourcePoint" />
            <mxPoint x="320" y="283" as="targetPoint" />
            <Array as="points">
              <mxPoint x="400" y="230" />
            </Array>
          </mxGeometry>
        </mxCell>
        <mxCell id="fl9XX-GpoOIAZKLbjIUZ-14" value="Servicios&lt;div&gt;3.10&lt;/div&gt;" style="html=1;dashed=0;whiteSpace=wrap;shape=partialRectangle;right=0;" parent="1" vertex="1">
          <mxGeometry x="700" y="292.5" width="140" height="55" as="geometry" />
        </mxCell>
        <mxCell id="fl9XX-GpoOIAZKLbjIUZ-15" value="" style="curved=1;endArrow=classic;html=1;rounded=0;exitX=1;exitY=0.5;exitDx=0;exitDy=0;entryX=0;entryY=0.5;entryDx=0;entryDy=0;fillColor=#6d8764;strokeColor=#3A5431;" parent="1" source="t-FGzTtGXcZ6JQJM-kCl-4" target="fl9XX-GpoOIAZKLbjIUZ-14" edge="1">
          <mxGeometry width="50" height="50" relative="1" as="geometry">
            <mxPoint x="590" y="318" as="sourcePoint" />
            <mxPoint x="740" y="260" as="targetPoint" />
            <Array as="points">
              <mxPoint x="640" y="300" />
            </Array>
          </mxGeometry>
        </mxCell>
        <mxCell id="fl9XX-GpoOIAZKLbjIUZ-16" value="" style="curved=1;endArrow=classic;html=1;rounded=0;exitX=0;exitY=0.5;exitDx=0;exitDy=0;entryX=1;entryY=0.5;entryDx=0;entryDy=0;fillColor=#6d8764;strokeColor=#3A5431;" parent="1" source="fl9XX-GpoOIAZKLbjIUZ-14" target="t-FGzTtGXcZ6JQJM-kCl-4" edge="1">
          <mxGeometry width="50" height="50" relative="1" as="geometry">
            <mxPoint x="790" y="407" as="sourcePoint" />
            <mxPoint x="640" y="360" as="targetPoint" />
            <Array as="points">
              <mxPoint x="640" y="340" />
            </Array>
          </mxGeometry>
        </mxCell>
        <mxCell id="fl9XX-GpoOIAZKLbjIUZ-17" value="" style="curved=1;endArrow=classic;html=1;rounded=0;exitX=1;exitY=0.5;exitDx=0;exitDy=0;entryX=0;entryY=0.5;entryDx=0;entryDy=0;fillColor=#e3c800;strokeColor=#B09500;" parent="1" source="t-FGzTtGXcZ6JQJM-kCl-2" target="uw__DwkTyNiJti9hj64N-15" edge="1">
          <mxGeometry width="50" height="50" relative="1" as="geometry">
            <mxPoint x="580" y="172.5" as="sourcePoint" />
            <mxPoint x="700" y="172.5" as="targetPoint" />
            <Array as="points">
              <mxPoint x="640" y="160" />
            </Array>
          </mxGeometry>
        </mxCell>
        <mxCell id="fl9XX-GpoOIAZKLbjIUZ-18" value="" style="curved=1;endArrow=classic;html=1;rounded=0;exitX=0;exitY=0.5;exitDx=0;exitDy=0;fillColor=#e3c800;strokeColor=#B09500;" parent="1" source="uw__DwkTyNiJti9hj64N-15" edge="1">
          <mxGeometry width="50" height="50" relative="1" as="geometry">
            <mxPoint x="700" y="200" as="sourcePoint" />
            <mxPoint x="580" y="180" as="targetPoint" />
            <Array as="points">
              <mxPoint x="640" y="200" />
            </Array>
          </mxGeometry>
        </mxCell>
        <mxCell id="fl9XX-GpoOIAZKLbjIUZ-19" value="" style="curved=1;endArrow=classic;html=1;rounded=0;exitX=0.25;exitY=0;exitDx=0;exitDy=0;entryX=1;entryY=1;entryDx=0;entryDy=0;fillColor=#e51400;strokeColor=#B20000;" parent="1" source="uw__DwkTyNiJti9hj64N-15" target="fl9XX-GpoOIAZKLbjIUZ-5" edge="1">
          <mxGeometry width="50" height="50" relative="1" as="geometry">
            <mxPoint x="730" y="80" as="sourcePoint" />
            <mxPoint x="780" y="30" as="targetPoint" />
            <Array as="points">
              <mxPoint x="620" y="140" />
            </Array>
          </mxGeometry>
        </mxCell>
        <mxCell id="fl9XX-GpoOIAZKLbjIUZ-20" value="" style="curved=1;endArrow=classic;html=1;rounded=0;exitX=1;exitY=1;exitDx=0;exitDy=0;entryX=0.25;entryY=0;entryDx=0;entryDy=0;fillColor=#e51400;strokeColor=#B20000;" parent="1" source="fl9XX-GpoOIAZKLbjIUZ-5" target="uw__DwkTyNiJti9hj64N-15" edge="1">
          <mxGeometry width="50" height="50" relative="1" as="geometry">
            <mxPoint x="630" y="60" as="sourcePoint" />
            <mxPoint x="750" y="60" as="targetPoint" />
            <Array as="points">
              <mxPoint x="660" y="110" />
            </Array>
          </mxGeometry>
        </mxCell>
        <mxCell id="fl9XX-GpoOIAZKLbjIUZ-21" value="" style="curved=1;endArrow=classic;html=1;rounded=0;exitX=1;exitY=1;exitDx=0;exitDy=0;entryX=0.75;entryY=0;entryDx=0;entryDy=0;fillColor=#0050ef;strokeColor=#001DBC;" parent="1" source="t-FGzTtGXcZ6JQJM-kCl-7" target="uw__DwkTyNiJti9hj64N-15" edge="1">
          <mxGeometry width="50" height="50" relative="1" as="geometry">
            <mxPoint x="610" y="-91" as="sourcePoint" />
            <mxPoint x="783" y="-20" as="targetPoint" />
            <Array as="points">
              <mxPoint x="720" y="10" />
            </Array>
          </mxGeometry>
        </mxCell>
        <mxCell id="fl9XX-GpoOIAZKLbjIUZ-22" value="" style="curved=1;endArrow=classic;html=1;rounded=0;exitX=0.75;exitY=0;exitDx=0;exitDy=0;entryX=1;entryY=1;entryDx=0;entryDy=0;fillColor=#0050ef;strokeColor=#001DBC;" parent="1" source="uw__DwkTyNiJti9hj64N-15" target="t-FGzTtGXcZ6JQJM-kCl-7" edge="1">
          <mxGeometry width="50" height="50" relative="1" as="geometry">
            <mxPoint x="745" y="163" as="sourcePoint" />
            <mxPoint x="572" y="92" as="targetPoint" />
            <Array as="points">
              <mxPoint x="640" y="80" />
            </Array>
          </mxGeometry>
        </mxCell>
        <mxCell id="fl9XX-GpoOIAZKLbjIUZ-23" value="" style="curved=1;endArrow=classic;html=1;rounded=0;exitX=0.75;exitY=0;exitDx=0;exitDy=0;entryX=1;entryY=0.5;entryDx=0;entryDy=0;fillColor=#0050ef;strokeColor=#001DBC;" parent="1" source="fl9XX-GpoOIAZKLbjIUZ-14" target="t-FGzTtGXcZ6JQJM-kCl-7" edge="1">
          <mxGeometry width="50" height="50" relative="1" as="geometry">
            <mxPoint x="850" y="170" as="sourcePoint" />
            <mxPoint x="900" y="120" as="targetPoint" />
            <Array as="points">
              <mxPoint x="1040" y="200" />
            </Array>
          </mxGeometry>
        </mxCell>
        <mxCell id="fl9XX-GpoOIAZKLbjIUZ-24" value="" style="curved=1;endArrow=classic;html=1;rounded=0;exitX=1;exitY=0.5;exitDx=0;exitDy=0;entryX=0.75;entryY=0;entryDx=0;entryDy=0;fillColor=#0050ef;strokeColor=#001DBC;" parent="1" source="t-FGzTtGXcZ6JQJM-kCl-7" target="fl9XX-GpoOIAZKLbjIUZ-14" edge="1">
          <mxGeometry width="50" height="50" relative="1" as="geometry">
            <mxPoint x="700" y="-111" as="sourcePoint" />
            <mxPoint x="943" y="100" as="targetPoint" />
            <Array as="points">
              <mxPoint x="1200" y="210" />
            </Array>
          </mxGeometry>
        </mxCell>
        <mxCell id="fl9XX-GpoOIAZKLbjIUZ-25" value="" style="curved=1;endArrow=classic;html=1;rounded=0;exitX=0.25;exitY=1;exitDx=0;exitDy=0;entryX=1;entryY=0.5;entryDx=0;entryDy=0;fillColor=#1ba1e2;strokeColor=#006EAF;" parent="1" source="fl9XX-GpoOIAZKLbjIUZ-14" target="t-FGzTtGXcZ6JQJM-kCl-5" edge="1">
          <mxGeometry width="50" height="50" relative="1" as="geometry">
            <mxPoint x="680" y="470" as="sourcePoint" />
            <mxPoint x="730" y="420" as="targetPoint" />
            <Array as="points">
              <mxPoint x="680" y="420" />
            </Array>
          </mxGeometry>
        </mxCell>
        <mxCell id="fl9XX-GpoOIAZKLbjIUZ-26" value="" style="curved=1;endArrow=classic;html=1;rounded=0;exitX=1;exitY=0.5;exitDx=0;exitDy=0;entryX=0.25;entryY=1;entryDx=0;entryDy=0;fillColor=#1ba1e2;strokeColor=#006EAF;" parent="1" source="t-FGzTtGXcZ6JQJM-kCl-5" target="fl9XX-GpoOIAZKLbjIUZ-14" edge="1">
          <mxGeometry width="50" height="50" relative="1" as="geometry">
            <mxPoint x="590" y="330" as="sourcePoint" />
            <mxPoint x="710" y="330" as="targetPoint" />
            <Array as="points">
              <mxPoint x="640" y="360" />
            </Array>
          </mxGeometry>
        </mxCell>
        <mxCell id="fl9XX-GpoOIAZKLbjIUZ-27" value="" style="curved=1;endArrow=classic;html=1;rounded=0;exitX=1;exitY=0;exitDx=0;exitDy=0;entryX=0.5;entryY=1;entryDx=0;entryDy=0;fillColor=#fa6800;strokeColor=#C73500;" parent="1" source="t-FGzTtGXcZ6JQJM-kCl-6" target="fl9XX-GpoOIAZKLbjIUZ-14" edge="1">
          <mxGeometry width="50" height="50" relative="1" as="geometry">
            <mxPoint x="590" y="470" as="sourcePoint" />
            <mxPoint x="745" y="358" as="targetPoint" />
            <Array as="points">
              <mxPoint x="630" y="440" />
            </Array>
          </mxGeometry>
        </mxCell>
        <mxCell id="fl9XX-GpoOIAZKLbjIUZ-28" value="" style="curved=1;endArrow=classic;html=1;rounded=0;exitX=0.5;exitY=1;exitDx=0;exitDy=0;entryX=1;entryY=0;entryDx=0;entryDy=0;fillColor=#fa6800;strokeColor=#C73500;" parent="1" source="fl9XX-GpoOIAZKLbjIUZ-14" target="t-FGzTtGXcZ6JQJM-kCl-6" edge="1">
          <mxGeometry width="50" height="50" relative="1" as="geometry">
            <mxPoint x="745" y="358" as="sourcePoint" />
            <mxPoint x="590" y="470" as="targetPoint" />
            <Array as="points">
              <mxPoint x="680" y="470" />
            </Array>
          </mxGeometry>
        </mxCell>
        <mxCell id="fl9XX-GpoOIAZKLbjIUZ-29" value="" style="curved=1;endArrow=classic;html=1;rounded=0;exitX=1;exitY=1;exitDx=0;exitDy=0;entryX=0.5;entryY=0;entryDx=0;entryDy=0;fillColor=#e3c800;strokeColor=#B09500;" parent="1" source="t-FGzTtGXcZ6JQJM-kCl-2" target="fl9XX-GpoOIAZKLbjIUZ-14" edge="1">
          <mxGeometry width="50" height="50" relative="1" as="geometry">
            <mxPoint x="590" y="190" as="sourcePoint" />
            <mxPoint x="710" y="190" as="targetPoint" />
            <Array as="points">
              <mxPoint x="680" y="210" />
            </Array>
          </mxGeometry>
        </mxCell>
        <mxCell id="fl9XX-GpoOIAZKLbjIUZ-30" value="" style="curved=1;endArrow=classic;html=1;rounded=0;exitX=0.5;exitY=0;exitDx=0;exitDy=0;entryX=1;entryY=1;entryDx=0;entryDy=0;fillColor=#e3c800;strokeColor=#B09500;" parent="1" source="fl9XX-GpoOIAZKLbjIUZ-14" target="t-FGzTtGXcZ6JQJM-kCl-2" edge="1">
          <mxGeometry width="50" height="50" relative="1" as="geometry">
            <mxPoint x="710" y="190" as="sourcePoint" />
            <mxPoint x="590" y="190" as="targetPoint" />
            <Array as="points">
              <mxPoint x="630" y="280" />
            </Array>
          </mxGeometry>
        </mxCell>
        <mxCell id="fl9XX-GpoOIAZKLbjIUZ-31" value="" style="curved=1;endArrow=classic;html=1;rounded=0;exitX=1;exitY=0;exitDx=0;exitDy=0;entryX=0.25;entryY=1;entryDx=0;entryDy=0;fillColor=#6d8764;strokeColor=#3A5431;" parent="1" source="t-FGzTtGXcZ6JQJM-kCl-4" target="uw__DwkTyNiJti9hj64N-15" edge="1">
          <mxGeometry width="50" height="50" relative="1" as="geometry">
            <mxPoint x="590" y="330" as="sourcePoint" />
            <mxPoint x="710" y="330" as="targetPoint" />
            <Array as="points">
              <mxPoint x="630" y="230" />
            </Array>
          </mxGeometry>
        </mxCell>
        <mxCell id="fl9XX-GpoOIAZKLbjIUZ-32" value="" style="curved=1;endArrow=classic;html=1;rounded=0;exitX=0.25;exitY=1;exitDx=0;exitDy=0;entryX=1;entryY=0;entryDx=0;entryDy=0;fillColor=#6d8764;strokeColor=#3A5431;" parent="1" source="uw__DwkTyNiJti9hj64N-15" target="t-FGzTtGXcZ6JQJM-kCl-4" edge="1">
          <mxGeometry width="50" height="50" relative="1" as="geometry">
            <mxPoint x="710" y="330" as="sourcePoint" />
            <mxPoint x="590" y="330" as="targetPoint" />
            <Array as="points">
              <mxPoint x="670" y="260" />
            </Array>
          </mxGeometry>
        </mxCell>
        <mxCell id="fl9XX-GpoOIAZKLbjIUZ-33" value="" style="curved=1;endArrow=classic;html=1;rounded=0;exitX=1;exitY=0;exitDx=0;exitDy=0;entryX=0.5;entryY=1;entryDx=0;entryDy=0;fillColor=#1ba1e2;strokeColor=#006EAF;" parent="1" source="t-FGzTtGXcZ6JQJM-kCl-5" target="uw__DwkTyNiJti9hj64N-15" edge="1">
          <mxGeometry width="50" height="50" relative="1" as="geometry">
            <mxPoint x="590" y="470" as="sourcePoint" />
            <mxPoint x="745" y="358" as="targetPoint" />
            <Array as="points">
              <mxPoint x="600" y="290" />
            </Array>
          </mxGeometry>
        </mxCell>
        <mxCell id="fl9XX-GpoOIAZKLbjIUZ-34" value="" style="curved=1;endArrow=classic;html=1;rounded=0;exitX=0.5;exitY=1;exitDx=0;exitDy=0;entryX=1;entryY=0;entryDx=0;entryDy=0;fillColor=#1ba1e2;strokeColor=#006EAF;" parent="1" source="uw__DwkTyNiJti9hj64N-15" target="t-FGzTtGXcZ6JQJM-kCl-5" edge="1">
          <mxGeometry width="50" height="50" relative="1" as="geometry">
            <mxPoint x="745" y="292.5" as="sourcePoint" />
            <mxPoint x="590" y="404.5" as="targetPoint" />
            <Array as="points">
              <mxPoint x="660" y="340" />
            </Array>
          </mxGeometry>
        </mxCell>
        <mxCell id="fl9XX-GpoOIAZKLbjIUZ-35" value="" style="curved=1;endArrow=classic;html=1;rounded=0;exitX=1;exitY=0.5;exitDx=0;exitDy=0;entryX=0.75;entryY=1;entryDx=0;entryDy=0;fillColor=#fa6800;strokeColor=#C73500;" parent="1" source="t-FGzTtGXcZ6JQJM-kCl-6" target="uw__DwkTyNiJti9hj64N-15" edge="1">
          <mxGeometry width="50" height="50" relative="1" as="geometry">
            <mxPoint x="572" y="568" as="sourcePoint" />
            <mxPoint x="780" y="358" as="targetPoint" />
            <Array as="points">
              <mxPoint x="980" y="440" />
            </Array>
          </mxGeometry>
        </mxCell>
        <mxCell id="fl9XX-GpoOIAZKLbjIUZ-36" value="" style="curved=1;endArrow=classic;html=1;rounded=0;exitX=0.75;exitY=1;exitDx=0;exitDy=0;entryX=1;entryY=0.5;entryDx=0;entryDy=0;fillColor=#fa6800;strokeColor=#C73500;" parent="1" source="uw__DwkTyNiJti9hj64N-15" target="t-FGzTtGXcZ6JQJM-kCl-6" edge="1">
          <mxGeometry width="50" height="50" relative="1" as="geometry">
            <mxPoint x="780" y="358" as="sourcePoint" />
            <mxPoint x="572" y="568" as="targetPoint" />
            <Array as="points">
              <mxPoint x="1070" y="480" />
            </Array>
          </mxGeometry>
        </mxCell>
        <mxCell id="_nAI9vN0RQWtM638mZTf-1" value="" style="endArrow=none;dashed=1;html=1;dashPattern=1 3;strokeWidth=2;rounded=0;" parent="1" edge="1">
          <mxGeometry width="50" height="50" relative="1" as="geometry">
            <mxPoint x="440" y="610" as="sourcePoint" />
            <mxPoint x="440" y="-120" as="targetPoint" />
          </mxGeometry>
        </mxCell>
        <mxCell id="_nAI9vN0RQWtM638mZTf-3" value="" style="endArrow=none;dashed=1;html=1;rounded=0;" parent="1" edge="1">
          <mxGeometry width="50" height="50" relative="1" as="geometry">
            <mxPoint x="600" y="610" as="sourcePoint" />
            <mxPoint x="600" y="-120" as="targetPoint" />
          </mxGeometry>
        </mxCell>
        <mxCell id="_nAI9vN0RQWtM638mZTf-4" value="Status" style="text;html=1;align=center;verticalAlign=middle;whiteSpace=wrap;rounded=0;rotation=-45;" parent="1" vertex="1">
          <mxGeometry x="293" y="83" width="60" height="30" as="geometry" />
        </mxCell>
        <mxCell id="_nAI9vN0RQWtM638mZTf-5" value="Status" style="text;html=1;align=center;verticalAlign=middle;whiteSpace=wrap;rounded=0;rotation=-35;" parent="1" vertex="1">
          <mxGeometry x="327" y="145.5" width="60" height="30" as="geometry" />
        </mxCell>
        <mxCell id="_nAI9vN0RQWtM638mZTf-8" value="Status" style="text;html=1;align=center;verticalAlign=middle;whiteSpace=wrap;rounded=0;rotation=-15;" parent="1" vertex="1">
          <mxGeometry x="364" y="211" width="60" height="30" as="geometry" />
        </mxCell>
        <mxCell id="_nAI9vN0RQWtM638mZTf-9" value="Status" style="text;html=1;align=center;verticalAlign=middle;whiteSpace=wrap;rounded=0;rotation=15;" parent="1" vertex="1">
          <mxGeometry x="340" y="296.5" width="60" height="30" as="geometry" />
        </mxCell>
        <mxCell id="_nAI9vN0RQWtM638mZTf-12" value="Status" style="text;html=1;align=center;verticalAlign=middle;whiteSpace=wrap;rounded=0;rotation=30;" parent="1" vertex="1">
          <mxGeometry x="360" y="418.5" width="60" height="30" as="geometry" />
        </mxCell>
        <mxCell id="_nAI9vN0RQWtM638mZTf-15" value="Status" style="text;html=1;align=center;verticalAlign=middle;whiteSpace=wrap;rounded=0;rotation=45;" parent="1" vertex="1">
          <mxGeometry x="276" y="467" width="60" height="30" as="geometry" />
        </mxCell>
        <mxCell id="_nAI9vN0RQWtM638mZTf-16" value="Solicitud get" style="text;html=1;align=center;verticalAlign=middle;whiteSpace=wrap;rounded=0;rotation=-60;" parent="1" vertex="1">
          <mxGeometry x="252" y="23" width="70" height="30" as="geometry" />
        </mxCell>
        <mxCell id="_nAI9vN0RQWtM638mZTf-17" value="Solicitud get/post" style="text;html=1;align=center;verticalAlign=middle;whiteSpace=wrap;rounded=0;rotation=-45;" parent="1" vertex="1">
          <mxGeometry x="289" y="98" width="106" height="30" as="geometry" />
        </mxCell>
        <mxCell id="_nAI9vN0RQWtM638mZTf-18" value="Solicitud get/post" style="text;html=1;align=center;verticalAlign=middle;whiteSpace=wrap;rounded=0;rotation=-20;" parent="1" vertex="1">
          <mxGeometry x="324" y="180.5" width="106" height="30" as="geometry" />
        </mxCell>
        <mxCell id="_nAI9vN0RQWtM638mZTf-19" value="Solicitud get/post" style="text;html=1;align=center;verticalAlign=middle;whiteSpace=wrap;rounded=0;rotation=15;" parent="1" vertex="1">
          <mxGeometry x="326" y="265" width="106" height="30" as="geometry" />
        </mxCell>
        <mxCell id="_nAI9vN0RQWtM638mZTf-20" value="Solicitud get/post" style="text;html=1;align=center;verticalAlign=middle;whiteSpace=wrap;rounded=0;rotation=35;" parent="1" vertex="1">
          <mxGeometry x="317" y="347.5" width="106" height="30" as="geometry" />
        </mxCell>
        <mxCell id="_nAI9vN0RQWtM638mZTf-22" value="Solicitud get/post" style="text;html=1;align=center;verticalAlign=middle;whiteSpace=wrap;rounded=0;rotation=50;" parent="1" vertex="1">
          <mxGeometry x="297" y="415" width="106" height="30" as="geometry" />
        </mxCell>
        <mxCell id="_nAI9vN0RQWtM638mZTf-23" value="Status" style="text;html=1;align=center;verticalAlign=middle;whiteSpace=wrap;rounded=0;rotation=50;" parent="1" vertex="1">
          <mxGeometry x="814" y="90" width="60" height="30" as="geometry" />
        </mxCell>
        <mxCell id="_nAI9vN0RQWtM638mZTf-24" value="Status" style="text;html=1;align=center;verticalAlign=middle;whiteSpace=wrap;rounded=0;rotation=45;" parent="1" vertex="1">
          <mxGeometry x="637" y="61" width="60" height="30" as="geometry" />
        </mxCell>
        <mxCell id="_nAI9vN0RQWtM638mZTf-25" value="Status" style="text;html=1;align=center;verticalAlign=middle;whiteSpace=wrap;rounded=0;rotation=15;" parent="1" vertex="1">
          <mxGeometry x="616" y="123" width="60" height="30" as="geometry" />
        </mxCell>
        <mxCell id="_nAI9vN0RQWtM638mZTf-26" value="Status" style="text;html=1;align=center;verticalAlign=middle;whiteSpace=wrap;rounded=0;rotation=0;" parent="1" vertex="1">
          <mxGeometry x="610" y="182" width="60" height="30" as="geometry" />
        </mxCell>
        <mxCell id="_nAI9vN0RQWtM638mZTf-27" value="&lt;font style=&quot;font-size: 6px;&quot;&gt;Status&lt;/font&gt;" style="text;html=1;align=center;verticalAlign=middle;whiteSpace=wrap;rounded=0;rotation=15;fontColor=light-dark(#000000,#B09500);" parent="1" vertex="1">
          <mxGeometry x="631" y="263" width="20" height="10" as="geometry" />
        </mxCell>
        <mxCell id="_nAI9vN0RQWtM638mZTf-28" value="&lt;font style=&quot;font-size: 6px;&quot;&gt;Status&lt;/font&gt;" style="text;html=1;align=center;verticalAlign=middle;whiteSpace=wrap;rounded=0;rotation=-25;fontColor=light-dark(#000000, #3a5431);" parent="1" vertex="1">
          <mxGeometry x="642" y="243" width="20" height="10" as="geometry" />
        </mxCell>
        <mxCell id="_nAI9vN0RQWtM638mZTf-29" value="&lt;font style=&quot;font-size: 6px;&quot;&gt;Status&lt;/font&gt;" style="text;html=1;align=center;verticalAlign=middle;whiteSpace=wrap;rounded=0;rotation=0;fontColor=light-dark(#000000, #3a5431);" parent="1" vertex="1">
          <mxGeometry x="630" y="326.5" width="20" height="10" as="geometry" />
        </mxCell>
        <mxCell id="_nAI9vN0RQWtM638mZTf-30" value="&lt;font style=&quot;font-size: 6px;&quot;&gt;Status&lt;/font&gt;" style="text;html=1;align=center;verticalAlign=middle;whiteSpace=wrap;rounded=0;rotation=-45;fontColor=light-dark(#000000, #006eaf);" parent="1" vertex="1">
          <mxGeometry x="635" y="342.5" width="20" height="10" as="geometry" />
        </mxCell>
        <mxCell id="_nAI9vN0RQWtM638mZTf-31" value="&lt;font style=&quot;font-size: 6px;&quot;&gt;Status&lt;/font&gt;" style="text;html=1;align=center;verticalAlign=middle;whiteSpace=wrap;rounded=0;rotation=-45;fontColor=light-dark(#000000, #006eaf);" parent="1" vertex="1">
          <mxGeometry x="654" y="404" width="20" height="10" as="geometry" />
        </mxCell>
        <mxCell id="_nAI9vN0RQWtM638mZTf-32" value="&lt;font style=&quot;font-size: 6px;&quot;&gt;Status&lt;/font&gt;" style="text;html=1;align=center;verticalAlign=middle;whiteSpace=wrap;rounded=0;rotation=-45;fontColor=light-dark(#000000, #c13500);" parent="1" vertex="1">
          <mxGeometry x="671" y="453" width="20" height="10" as="geometry" />
        </mxCell>
        <mxCell id="_nAI9vN0RQWtM638mZTf-33" value="&lt;font&gt;Status&lt;/font&gt;" style="text;html=1;align=center;verticalAlign=middle;whiteSpace=wrap;rounded=0;rotation=-50;fontColor=light-dark(#000000, #c13500);" parent="1" vertex="1">
          <mxGeometry x="840" y="477" width="40" height="10" as="geometry" />
        </mxCell>
        <mxCell id="_nAI9vN0RQWtM638mZTf-35" value="R | Servicios por servidor" style="text;html=1;align=center;verticalAlign=middle;whiteSpace=wrap;rounded=0;rotation=30;" parent="1" vertex="1">
          <mxGeometry x="770" y="25" width="151" height="30" as="geometry" />
        </mxCell>
        <mxCell id="_nAI9vN0RQWtM638mZTf-36" value="R | Servidores registrados" style="text;html=1;align=center;verticalAlign=middle;whiteSpace=wrap;rounded=0;rotation=45;" parent="1" vertex="1">
          <mxGeometry x="637" y="11" width="151" height="30" as="geometry" />
        </mxCell>
        <mxCell id="_nAI9vN0RQWtM638mZTf-37" value="&lt;div&gt;&lt;font style=&quot;font-size: 6px;&quot;&gt;C | Nombre asociado al servidor,&amp;nbsp;&lt;span style=&quot;background-color: transparent; color: light-dark(rgb(0, 0, 0), rgb(255, 255, 255));&quot;&gt;IP o dominio&lt;/span&gt;&lt;/font&gt;&lt;/div&gt;" style="text;html=1;align=center;verticalAlign=middle;whiteSpace=wrap;rounded=0;rotation=20;" parent="1" vertex="1">
          <mxGeometry x="596" y="104" width="127.56" height="10.22" as="geometry" />
        </mxCell>
        <mxCell id="_nAI9vN0RQWtM638mZTf-40" value="&lt;span style=&quot;font-size: 6px;&quot;&gt;R | Servidor donde se alojará&lt;/span&gt;" style="text;html=1;align=center;verticalAlign=middle;whiteSpace=wrap;rounded=0;rotation=0;" parent="1" vertex="1">
          <mxGeometry x="597" y="159.39" width="90" height="10.22" as="geometry" />
        </mxCell>
        <mxCell id="_nAI9vN0RQWtM638mZTf-42" value="&lt;font style=&quot;font-size: 5px;&quot;&gt;RU | SERVIDOR DONDE SE INICIARA SERVICIO&lt;/font&gt;" style="text;html=1;align=center;verticalAlign=middle;whiteSpace=wrap;rounded=0;rotation=-25;fontColor=light-dark(#000000, #3a5431);textShadow=0;" parent="1" vertex="1">
          <mxGeometry x="563.73" y="231.94" width="123.36" height="10" as="geometry" />
        </mxCell>
        <mxCell id="_nAI9vN0RQWtM638mZTf-43" value="&lt;font style=&quot;font-size: 6px;&quot;&gt;Status&lt;/font&gt;" style="text;html=1;align=center;verticalAlign=middle;whiteSpace=wrap;rounded=0;rotation=0;fontColor=light-dark(#000000,#B09500);" parent="1" vertex="1">
          <mxGeometry x="600" y="207.5" width="80" height="10" as="geometry" />
        </mxCell>
        <mxCell id="6CojYyUvT26SnVhBJZ2K-1" value="&lt;span style=&quot;font-size: 6px;&quot;&gt;RU | Nombre, IP, Puerto&lt;/span&gt;" style="text;html=1;align=center;verticalAlign=middle;whiteSpace=wrap;rounded=0;rotation=0;fontColor=light-dark(#000000, #3a5431);" parent="1" vertex="1">
          <mxGeometry x="590.09" y="298.5" width="100" height="10" as="geometry" />
        </mxCell>
        <mxCell id="6CojYyUvT26SnVhBJZ2K-2" value="&lt;font style=&quot;font-size: 4px;&quot;&gt;RU | SERVIDOR DONDE SE REINICIARA EL SERVICIO&lt;/font&gt;" style="text;html=1;align=center;verticalAlign=middle;whiteSpace=wrap;rounded=0;rotation=-60;fontColor=light-dark(#000000, #006eaf);" parent="1" vertex="1">
          <mxGeometry x="528.67" y="354.45" width="105.58" height="10" as="geometry" />
        </mxCell>
        <mxCell id="6CojYyUvT26SnVhBJZ2K-3" value="&lt;font style=&quot;font-size: 4px;&quot;&gt;RU | SERVICIO QUE SE VA A REINICIAR&lt;/font&gt;" style="text;html=1;align=center;verticalAlign=middle;whiteSpace=wrap;rounded=0;rotation=-45;fontColor=light-dark(#000000, #006eaf);" parent="1" vertex="1">
          <mxGeometry x="594.09" y="379" width="79.91" height="10" as="geometry" />
        </mxCell>
        <mxCell id="6CojYyUvT26SnVhBJZ2K-6" value="&lt;font style=&quot;font-size: 6px;&quot;&gt;RU | SERVICIO QUE SE VA A DETENER&lt;/font&gt;" style="text;html=1;align=center;verticalAlign=middle;whiteSpace=wrap;rounded=0;rotation=-45;fontColor=light-dark(#000000, #c13500);" parent="1" vertex="1">
          <mxGeometry x="581" y="459" width="116" height="10" as="geometry" />
        </mxCell>
        <mxCell id="6CojYyUvT26SnVhBJZ2K-9" value="RU | SERVIDOR DONDE SE VA A DETENER EL SERVICIO" style="text;html=1;align=center;verticalAlign=middle;whiteSpace=wrap;rounded=0;rotation=-40;fontColor=light-dark(#000000, #c13500);fontSize=8;" parent="1" vertex="1">
          <mxGeometry x="642" y="469" width="222" height="10" as="geometry" />
        </mxCell>
      </root>
    </mxGraphModel>
  </diagram>
</mxfile>
